<?xml version="1.0" encoding="UTF-8"?>
<svg id="_レイヤー_2" data-name="レイヤー 2" xmlns="http://www.w3.org/2000/svg" viewBox="0 0 124.91 36.43">
  <defs>
    <style>
      .cls-1 {
        fill: none;
      }

      .cls-1, .cls-2 {
        stroke: #231815;
        stroke-miterlimit: 10;
      }

      .cls-2, .cls-3 {
        fill: #231815;
      }
    </style>
  </defs>
  <g id="_レイヤー_1-2" data-name="レイヤー 1">
    <g>
      <g>
        <path class="cls-3" d="m1.6,22.26c0-3,.02-5.29.05-6.88.03-1.57.03-2.75,0-3.56-.43-.07-.74-.07-.96.02s-.35.02-.4-.17c-.05-.18-.02-.33.08-.43s.38-.17.84-.2c.46-.03.94-.03,1.4-.02.46.02.76.05.87.12.1.08.13.2.08.38-.05.18-.17.26-.31.25-.17,0-.43,0-.84-.02-.08,3.88-.12,7.37-.1,10.47.79-.02,1.29-.02,1.42.03.15.05.21.13.18.25-.03.12-.07.21-.1.31-.05.12-.35.17-.92.17-.61,0-1.12.02-1.55.05-.43.03-.79.05-1.06.02-.25-.02-.35-.17-.28-.43.07-.28.25-.38.56-.3.48.08.83.05,1.02-.07Z"/>
        <path class="cls-3" d="m8.85,15.37c-.36-.03-.74-.02-1.09.07-.38.08-.59.02-.64-.17-.07-.16-.1-.31-.1-.45s.1-.21.35-.26c.23-.03.76-.03,1.58-.02-.03-1.3.03-2.05.21-2.18.17-.15.33-.12.48.08.15.21.2.43.17.64-.05.2-.05.69-.03,1.47.89,0,1.48-.02,1.78-.07.3-.02.53,0,.74.1.21.1.28.26.21.51-.07.23-.25.35-.53.31-.28-.03-1.04-.03-2.26-.02-.15,2.01-.2,3.53-.13,4.55.07,1.01.13,1.58.2,1.73.07.17.23.33.54.5.28.18.66.15,1.09-.12.45-.25.74-.53.94-.82.18-.31.4-.35.66-.1.25.23.28.4.12.51-.18.12-.4.3-.63.56-.25.28-.59.51-.99.68-.4.2-.81.23-1.17.13-.4-.08-.68-.21-.89-.38s-.41-.48-.63-.91c-.05-2.13-.05-4.26.02-6.37Z"/>
        <path class="cls-3" d="m21.53,21.06c-.02.61-.23,1.07-.61,1.4-.38.31-.92.53-1.65.61-.73.08-1.37.02-1.95-.23-.59-.23-1.01-.49-1.29-.81-.26-.28-.46-.56-.54-.83-.08-.26-.05-.48.1-.63.15-.17.28-.2.4-.08.08.12.28.35.56.73.26.36.66.66,1.14.83.46.2,1.02.26,1.62.21s.96-.23,1.14-.5c.17-.28.25-.59.23-1.01-.02-.38-.3-.78-.82-1.14-.53-.36-1.07-.63-1.68-.76-.59-.12-1.1-.33-1.53-.68-.45-.33-.63-.78-.58-1.3.07-.53.26-.94.58-1.24.3-.31.68-.51,1.11-.66.43-.13.94-.17,1.48-.1.54.08,1.02.26,1.44.56.4.31.56.51.48.63-.1.12-.2.2-.28.25-.1.05-.38-.07-.81-.35-.46-.26-.97-.36-1.57-.3s-1.06.28-1.35.68c-.33.4-.33.76.02,1.07.33.33.94.61,1.8.86.87.26,1.62.71,2.21,1.37.26.33.4.81.38,1.4Z"/>
        <path class="cls-3" d="m24.39,14.81c.2.12.33.23.38.35.05.1.03.56-.07,1.32-.1.76-.17,1.8-.2,3.07-.03,1.29.18,2.09.63,2.42.46.31.96.43,1.48.33s.97-.41,1.32-.97c.35-.58.54-1.29.63-2.13.08-.86.15-1.72.2-2.56.05-.82.08-1.3.12-1.4.03-.07.17-.07.36,0,.21.1.33.21.33.36s-.03.71-.1,1.7c-.07,1.01-.08,2.08-.03,3.23.03,1.15.1,1.86.18,2.14.08.26-.02.43-.33.46-.3.03-.46-.02-.46-.15,0-.12-.07-.51-.21-1.17-.74,1.25-1.93,1.6-3.56,1.04-.74-.23-1.15-.63-1.24-1.12-.1-.5-.13-1.39-.08-2.66.03-1.27.13-2.57.3-3.91.05-.35.18-.46.36-.36Z"/>
        <path class="cls-3" d="m31.25,21.23c.03-1.06.05-2.03.07-2.92,0-.89,0-1.55-.02-1.95-.02-.41,0-.78.07-1.09.05-.3.18-.43.4-.41.2.02.28.12.26.26-.03.13-.07.3-.08.48-.03.18-.03.41-.02.76.36-.49.74-.79,1.19-.94.41-.15.81-.1,1.2.12.36.21.61.56.73,1.02.59-.73,1.17-1.12,1.73-1.15.56-.02,1.01.18,1.37.59.38.43.56,1.09.56,2s-.02,1.9-.03,2.94c-.03,1.06-.1,1.63-.2,1.76-.1.13-.25.15-.43.03-.17-.08-.23-.26-.18-.54.05-.26.08-.84.1-1.73.02-.89,0-1.7-.02-2.46-.02-.76-.15-1.24-.38-1.45-.23-.23-.46-.35-.71-.33-.23.02-.48.13-.76.33-.26.21-.54.54-.84.97-.03,1.77-.05,3.03-.07,3.84-.02.83-.1,1.29-.21,1.37-.12.12-.25.12-.38,0-.15-.08-.2-.69-.13-1.76.05-1.07.05-2.05,0-2.87-.05-.82-.17-1.37-.35-1.62-.18-.26-.51-.31-.99-.17-.51.17-.86.69-1.09,1.58-.05,1.63-.07,2.82-.08,3.56-.02.76-.03,1.17-.05,1.24-.02.07-.07.17-.2.3-.13.15-.26.15-.4,0-.08-.13-.1-.73-.07-1.76Z"/>
        <path class="cls-3" d="m45.58,16.18c.49.66.73,1.68.66,3.07-.08,1.39-.4,2.33-.92,2.85-.54.54-1.07.86-1.6.96s-1.17.05-1.96-.17c-1.11-.76-1.63-1.93-1.6-3.56.03-1.62.36-2.76.96-3.42.59-.64,1.1-.97,1.52-1.02.4-.05.78-.05,1.07,0,.74.21,1.37.64,1.88,1.29Zm-.12,2.36c-.12-1.25-.54-2.09-1.32-2.57-.79-.45-1.52-.35-2.19.28-.68.64-1.01,1.67-.99,3.1.02,1.44.4,2.38,1.15,2.77.74.41,1.53.33,2.39-.23.73-.99,1.06-2.11.96-3.35Z"/>
      </g>
      <g>
        <path class="cls-3" d="m83.51,19.95c.02,1.73-.05,2.8-.26,3.27-.21.43-.53.78-.94,1.02-.4.26-.89.4-1.45.41-.56.02-1.06-.1-1.5-.31-.48-.23-.81-.46-1.04-.74-.23-.26-.3-.51-.18-.76.1-.23.3-.21.59.05.3.28.63.53.96.74.35.23.83.28,1.42.15s.99-.35,1.19-.61c.2-.28.33-.73.41-1.32s.08-1.42.05-2.51c-1.44,1.09-2.66,1.58-3.63,1.47-.99-.1-1.55-.63-1.7-1.57-.13-.96.26-1.95,1.2-2.97.92-1.04,1.9-1.5,2.87-1.42.99.08,1.55.23,1.68.43.12.21.2.51.25.87.05.79.07,2.06.08,3.79Zm-.83-3.4c-.15-.61-.51-.91-1.06-.92-.56,0-1.04.13-1.48.4-.43.28-.86.69-1.32,1.24-.46.58-.66,1.12-.59,1.67.05.54.28.87.64.97.38.1.86.07,1.49-.07.63-.15,1.27-.56,1.93-1.27.41-.73.53-1.39.4-2.01Z"/>
        <path class="cls-3" d="m89.76,17.86c-.07-.74-.21-1.27-.46-1.57-.26-.3-.64-.48-1.15-.56-.54-.08-1.02-.1-1.45-.08-.46.03-.71-.02-.78-.15-.08-.13-.07-.28.05-.43.1-.17.4-.23.91-.2.5.05,1.02.1,1.55.15.54.05,1.04.35,1.5.87.45.54.64,1.34.58,2.36-.07,1.04.03,1.91.3,2.64.23.73.48,1.19.71,1.37.21.2.43.38.64.51.21.15.21.35.03.58-.2.21-.48.18-.87-.1-.38-.3-.73-.74-1.02-1.34-1.25,1.11-2.54,1.44-3.89.96-1.04-.33-1.57-1.07-1.57-2.24-.02-1.19.61-2.24,1.86-3.22.92-.36,1.96-.21,3.07.45Zm-.18.87c-.63-.41-1.2-.66-1.7-.74-.49-.07-1.04.25-1.62.94-.56.69-.82,1.34-.78,1.9.03.56.43,1.04,1.19,1.38.76.36,1.86.02,3.35-.99-.26-1.04-.4-1.86-.45-2.49Z"/>
        <path class="cls-3" d="m95.52,15.37c-.36-.03-.74-.02-1.09.07-.38.08-.59.02-.64-.17-.07-.16-.1-.31-.1-.45s.1-.21.35-.26c.23-.03.76-.03,1.58-.02-.03-1.3.03-2.05.21-2.18.17-.15.33-.12.48.08.15.21.2.43.17.64-.05.2-.05.69-.03,1.47.89,0,1.48-.02,1.78-.07.3-.02.53,0,.74.1.21.1.28.26.21.51-.07.23-.25.35-.53.31-.28-.03-1.04-.03-2.26-.02-.15,2.01-.2,3.53-.13,4.55.07,1.01.13,1.58.2,1.73.07.17.23.33.54.5.28.18.66.15,1.09-.12.45-.25.74-.53.94-.82.18-.31.4-.35.66-.1.25.23.28.4.12.51-.18.12-.4.3-.63.56-.25.28-.59.51-.99.68-.4.2-.81.23-1.17.13-.4-.08-.68-.21-.89-.38-.21-.17-.41-.48-.63-.91-.05-2.13-.05-4.26.02-6.37Z"/>
        <path class="cls-3" d="m107.5,16.18c.49.66.73,1.68.66,3.07-.08,1.39-.4,2.33-.92,2.85-.54.54-1.07.86-1.6.96-.53.1-1.17.05-1.96-.17-1.11-.76-1.63-1.93-1.6-3.56.03-1.62.36-2.76.96-3.42.59-.64,1.11-.97,1.52-1.02.4-.05.78-.05,1.07,0,.74.21,1.37.64,1.88,1.29Zm-.12,2.36c-.12-1.25-.54-2.09-1.32-2.57-.79-.45-1.52-.35-2.19.28-.68.64-1.01,1.67-.99,3.1.02,1.44.4,2.38,1.16,2.77.74.41,1.53.33,2.39-.23.73-.99,1.06-2.11.96-3.35Z"/>
        <path class="cls-3" d="m115.44,19.28c-.02-1.12-.15-1.9-.38-2.33-.25-.43-.64-.66-1.22-.68-.56,0-1.09.28-1.58.86-.51.56-.81.99-.91,1.3-.12,1.4-.18,2.34-.18,2.84v1.24c0,.35-.08.54-.23.59-.17.03-.3-.02-.4-.15-.1-.12-.12-.81-.07-2.08.05-1.25.1-2.49.13-3.73.02-1.25.03-1.91.03-2,0-.1.08-.18.25-.25.15-.07.28-.07.36,0,.08.07.12.76.07,2.06.83-.99,1.57-1.5,2.24-1.52.66-.02,1.19.13,1.57.45.4.33.66.68.81,1.06.15.36.26.96.33,1.78.07.82.07,1.77,0,2.8-.07,1.06-.21,1.55-.43,1.53-.21-.02-.33-.1-.35-.23-.02-.12-.03-.33-.03-.64.02-.84,0-1.81-.02-2.92Z"/>
        <path class="cls-3" d="m119.27,21.08c.2.5.68.86,1.43,1.09.76.25,1.57.12,2.42-.4.86-.51,1.35-.77,1.48-.76.12.02.17.15.17.36,0,.23-.1.41-.31.56-.21.13-.78.41-1.68.81-.91.43-1.78.48-2.62.17-.84-.28-1.39-.73-1.62-1.3-.25-.56-.35-1.43-.28-2.61.3-1.53,1.06-2.72,2.31-3.61,1.85-.99,3.25-.66,4.19,1.04.23,1.45.2,2.24-.08,2.41-.31.18-.59.26-.83.25-.25-.02-1.83-.07-4.7-.17-.12.96-.08,1.68.12,2.16Zm.21-2.92c1.45.12,2.95.13,4.52.08.2-.71.07-1.37-.4-2-.46-.63-1.3-.71-2.51-.25-.76.35-1.3,1.07-1.62,2.16Z"/>
      </g>
      <g>
        <ellipse class="cls-2" cx="61.84" cy="11.93" rx="2.95" ry="3.72"/>
        <ellipse class="cls-2" cx="61.84" cy="19.63" rx="2.95" ry="4.4"/>
        <ellipse class="cls-2" cx="61.84" cy="29.88" rx="4.9" ry="6.06"/>
        <line class="cls-1" x1="75.84" y1="19.63" x2="65.21" y2="19.63"/>
        <path class="cls-1" d="m70.53,22.51c.27.76.47,1.32.47,1.32l1.45,11.12"/>
        <line class="cls-1" x1="63.18" y1="8.74" x2="66.41" y2="3.14"/>
        <ellipse class="cls-2" cx="66.62" cy="2.78" rx="2.51" ry="1.06" transform="translate(30.63 58.91) rotate(-59.72)"/>
        <path class="cls-1" d="m70.32,16.71c.26-.52.45-.91.45-.91l3.78-7.62"/>
        <line class="cls-1" x1="47.87" y1="19.63" x2="58.5" y2="19.63"/>
        <path class="cls-1" d="m52.98,22.51c-.27.76-.47,1.32-.47,1.32l-1.45,11.12"/>
        <path class="cls-1" d="m53.19,16.71c-.26-.52-.45-.91-.45-.91l-3.78-7.62"/>
        <line class="cls-1" x1="60.33" y1="8.7" x2="57.1" y2="3.11"/>
        <ellipse class="cls-2" cx="56.88" cy="2.73" rx="1.06" ry="2.5" transform="translate(6.25 28.8) rotate(-30)"/>
      </g>
    </g>
  </g>
</svg>